<svg height="512pt" viewBox="0 0 512 512" width="512pt" xmlns="http://www.w3.org/2000/svg"><path d="m263.574219 332.59375c13.4375-17.644531 21.425781-39.648438 21.425781-63.484375 0-57.894531-47.101562-105-105-105s-105 47.105469-105 105c0 23.835937 7.988281 45.839844 21.425781 63.484375-57.4375 30.269531-96.425781 90.023438-96.425781 159.40625 0 11.046875 8.953125 20 20 20h320c11.046875 0 20-8.953125 20-20 0-69.339844-38.953125-129.113281-96.425781-159.40625zm-83.574219-128.484375c35.839844 0 65 29.160156 65 65s-29.160156 65-65 65-65-29.160156-65-65 29.160156-65 65-65zm-138.59375 267.890625c7.265625-51.175781 42.21875-92.90625 88.382812-110.695312 14.925782 8.160156 32.035157 12.804687 50.210938 12.804687 18.171875 0 35.28125-4.644531 50.207031-12.800781 46.152344 17.78125 81.121094 59.5 88.386719 110.691406zm410.59375-472h-112c-33.085938 0-60 26.914062-60 60v109.113281c0 26.074219 16.71875 48.316407 40 56.570313v49.429687c0 17.09375 20.175781 26.335938 33.113281 15.101563l70.359375-61.101563h28.527344c33.085938 0 60-26.917969 60-60v-109.113281c0-33.085938-26.914062-60-60-60zm20 169.113281c0 11.027344-8.972656 20-20 20h-36c-4.816406 0-9.476562 1.738281-13.113281 4.898438l-42.886719 37.242187v-22.144531c0-11.042969-8.953125-20-20-20-11.027344 0-20-8.96875-20-20v-109.109375c0-11.027344 8.972656-20 20-20h112c11.027344 0 20 8.972656 20 20zm0 0"/></svg>