<svg height="512pt" viewBox="0 0 512.00067 512" width="512pt" xmlns="http://www.w3.org/2000/svg"><path d="m512 236c0 45.449219-14.039062 89.578125-40.601562 127.613281-6.324219 9.058594-18.789063 11.273438-27.847657 4.949219-9.058593-6.324219-11.273437-18.792969-4.949219-27.847656 21.851563-31.289063 33.398438-67.5 33.398438-104.714844 0-108.074219-96.898438-196-216-196s-216 87.925781-216 196c0 43.78125 15.578125 85.199219 45.046875 119.773438 4.835937 5.667968 6.113281 13.558593 3.320313 20.46875l-31.363282 77.589843 91.34375-40.269531c5.0625-2.230469 10.824219-2.265625 15.914063-.09375 28.820312 12.296875 59.683593 18.53125 91.738281 18.53125 36.894531 0 73.300781-8.585938 105.285156-24.832031 9.851563-5 21.886719-1.074219 26.890625 8.773437 5 9.851563 1.070313 21.886719-8.777343 26.890625-37.570313 19.082031-80.242188 29.167969-123.398438 29.167969-34.480469 0-67.832031-6.191406-99.273438-18.414062l-128.65625 56.714843c-2.59375 1.144531-5.339843 1.699219-8.066406 1.699219-5.097656 0-10.113281-1.949219-13.925781-5.640625-5.84375-5.667969-7.671875-14.308594-4.621094-21.855469l45.414063-112.332031c-30.707032-39.917969-46.871094-86.746094-46.871094-136.171875 0-63.375 26.855469-122.855469 75.621094-167.488281 48.269531-44.179688 112.332031-68.511719 180.378906-68.511719 68.050781 0 132.109375 24.332031 180.382812 68.511719 48.761719 44.632812 75.617188 104.113281 75.617188 167.488281zm-150.574219-106.425781c23.394531 23.394531 23.394531 61.457031 0 84.851562l-109.570312 109.367188c-2.441407 2.4375-5.46875 4.199219-8.792969 5.117187l-80.722656 22.363282c-1.761719.488281-3.558594.726562-5.339844.726562-5.316406 0-10.5-2.121094-14.316406-6.035156-5.09375-5.21875-6.9375-12.800782-4.820313-19.777344l23.914063-78.726562c.957031-3.148438 2.679687-6.015626 5.011718-8.34375l109.800782-109.558594c23.378906-23.378906 61.445312-23.378906 84.835937.015625zm-60.457031 88.679687-28.289062-28.289062-74.085938 73.925781-11.886719 39.125 40.609375-11.25zm32.171875-60.394531c-7.796875-7.800781-20.484375-7.800781-28.28125 0l-3.863281 3.851563 28.285156 28.285156 3.875-3.867188c7.785156-7.785156 7.785156-20.472656-.015625-28.269531zm0 0"/></svg>