<?xml version="1.0" encoding="iso-8859-1"?>
<!-- Generator: Adobe Illustrator 19.0.0, SVG Export Plug-In . SVG Version: 6.00 Build 0)  -->
<svg version="1.1" id="Capa_1" xmlns="http://www.w3.org/2000/svg" xmlns:xlink="http://www.w3.org/1999/xlink" x="0px" y="0px"
	 viewBox="0 0 502.172 502.172" style="enable-background:new 0 0 502.172 502.172;" xml:space="preserve">
<g>
	<g>
		<g>
			<path d="M421.15,162.556l30.928-8.208c-2.976-11.18-6.877-22.092-11.664-32.624l-29.136,13.264
				C415.335,143.885,418.637,153.107,421.15,162.556z"/>
			<path d="M423.438,91.516c-6.478-9.577-13.746-18.595-21.728-26.96l-23.168,22.08c6.755,7.082,12.909,14.714,18.4,22.816
				L423.438,91.516z"/>
			<path d="M458.158,188.396l-31.856,3.008c0.528,5.536,0.784,11.056,0.784,16.608c0.133,46.704-18.431,91.519-51.552,124.448
				L251.086,456.924L126.638,332.46c-68.731-68.734-68.728-180.171,0.006-248.902c33.005-33.003,77.768-51.545,124.442-51.546
				c38.1-0.117,75.19,12.247,105.6,35.2l19.2-25.6c-91.9-68.925-222.275-50.3-291.2,41.6c-27.003,36.004-41.6,79.795-41.6,124.8
				c-0.153,55.195,21.788,108.155,60.928,147.072l147.072,147.088l147.072-147.088c39.146-38.913,61.088-91.876,60.928-147.072
				C459.086,201.463,458.777,194.924,458.158,188.396z"/>
			<path d="M205.374,87.772l-43.344,72.24h-38.944v32h17.872l10.752,85.952c3.002,24.022,23.423,42.049,47.632,42.048H302.83
				c24.209,0.001,44.63-18.026,47.632-42.048l10.752-85.952h17.872v-32h-38.944l-43.344-72.24l-27.424,16.48l33.456,55.76H199.342
				l33.456-55.76L205.374,87.772z M328.958,192.012l-10.24,81.984c-1.001,8.011-7.814,14.022-15.888,14.016H199.342
				c-8.074,0.006-14.887-6.005-15.888-14.016l-10.24-81.984H328.958z"/>
		</g>
	</g>
</g>
<g>
</g>
<g>
</g>
<g>
</g>
<g>
</g>
<g>
</g>
<g>
</g>
<g>
</g>
<g>
</g>
<g>
</g>
<g>
</g>
<g>
</g>
<g>
</g>
<g>
</g>
<g>
</g>
<g>
</g>
</svg>
